<svg width="24" height="24" viewBox="0 0 24 24" fill="none" xmlns="http://www.w3.org/2000/svg">
<path d="M1.96784 10.9979C1.89763 10.4501 2.35201 10 2.9043 10H21.0416C21.5938 10 22.0416 10.4477 22.0416 11V17C22.0416 17.5523 21.5938 18 21.0416 18H9.57564C6.02863 18 2.48163 15.007 1.96784 10.9979Z" stroke="#004972" stroke-width="2"/>
<path d="M13.2272 8.53289C12.8754 9.19885 13.3582 10 14.1114 10H18.1646C18.7169 10 19.1646 9.55228 19.1646 9V7C19.1646 6.44772 18.7169 6 18.1646 6H15.168C14.7973 6 14.457 6.20509 14.2838 6.53289L13.2272 8.53289Z" stroke="#004972" stroke-width="2"/>
</svg>
