<svg width="60" height="60" viewBox="0 0 60 60" fill="none" xmlns="http://www.w3.org/2000/svg">
<rect width="60" height="60" rx="30" fill="#F2F9FB" fill-opacity="0.75"/>
<path d="M41 20H39.6938C39.4478 20 39.3248 20 39.2258 20.0452C39.1386 20.0851 39.0647 20.1492 39.0129 20.2299C38.9541 20.3215 38.9367 20.4433 38.9019 20.6869L38.4286 24M38.4286 24L37.3767 31.7314C37.2432 32.7125 37.1765 33.2031 36.9419 33.5723C36.7352 33.8977 36.4389 34.1564 36.0886 34.3174C35.6911 34.5 35.1961 34.5 34.2059 34.5H25.648C24.7055 34.5 24.2342 34.5 23.849 34.3304C23.5095 34.1809 23.2182 33.9398 23.0077 33.6342C22.7691 33.2876 22.6809 32.8247 22.5045 31.8988L21.1809 24.9497C21.1188 24.6238 21.0878 24.4609 21.1328 24.3335C21.1722 24.2218 21.2501 24.1277 21.3525 24.068C21.4692 24 21.635 24 21.9668 24H38.4286ZM33 39C33 39.5523 33.4477 40 34 40C34.5523 40 35 39.5523 35 39C35 38.4477 34.5523 38 34 38C33.4477 38 33 38.4477 33 39ZM25 39C25 39.5523 25.4477 40 26 40C26.5523 40 27 39.5523 27 39C27 38.4477 26.5523 38 26 38C25.4477 38 25 38.4477 25 39Z" stroke="#004972" stroke-width="2" stroke-linecap="round" stroke-linejoin="round"/>
</svg>
