<svg width="134" height="79" viewBox="0 0 134 79" fill="none" xmlns="http://www.w3.org/2000/svg">
<path d="M77.1571 62.1044C78.608 64.0388 80.8188 65.3515 83.4442 65.3515C86.0695 65.3515 88.2804 64.0388 89.7312 62.1044C91.1821 64.0388 93.3928 65.3515 96.0182 65.3515C96.9164 65.3515 97.8146 65.1443 98.5745 64.7988C98.8509 64.6606 99.1963 64.5916 99.4726 64.4534C99.8872 64.2461 100.302 63.9698 100.647 63.6934C101.269 63.2098 101.822 62.7262 102.305 62.1044C103.756 64.0388 105.967 65.3515 108.592 65.3515C111.218 65.3515 113.429 64.0388 114.879 62.1044C116.33 64.0388 118.541 65.3515 121.166 65.3515C125.588 65.3515 129.181 61.7589 129.181 57.3373H125.726C125.726 59.8245 123.723 61.8971 121.166 61.8971C118.61 61.8971 116.607 59.8935 116.607 57.3373H113.152C113.152 59.8245 111.08 61.8971 108.592 61.8971C106.105 61.8971 104.032 59.8936 104.032 57.4064H100.578C100.578 59.8936 98.5745 61.9662 96.0182 61.9662C93.531 61.9662 91.4585 59.9626 91.4585 57.4064H88.004C88.004 59.8936 85.9314 61.9662 83.4442 61.9662C80.957 61.9662 78.8843 59.9626 78.8843 57.4064H75.4299C75.4299 59.8936 73.4263 61.9662 70.8701 61.9662V65.4206C73.4954 65.4206 75.7063 64.1079 77.1571 62.1735V62.1044Z" fill="#13648A"/>
<path d="M122.478 70.4634H119.024C119.024 72.9506 116.951 75.0232 114.464 75.0232C111.976 75.0232 109.904 73.0196 109.904 70.4634H106.449C106.449 72.9506 104.446 75.0232 101.89 75.0232C99.4025 75.0232 97.3298 73.0196 97.3298 70.4634H93.8754C93.8754 72.9506 91.8718 75.0232 89.3155 75.0232C86.8283 75.0232 84.7558 73.0196 84.7558 70.4634H81.3013C81.3013 72.9506 79.2978 75.0232 76.7415 75.0232C74.1852 75.0232 72.1816 73.0196 72.1816 70.4634H68.7272C68.7272 72.9506 66.7236 75.0232 64.1674 75.0232V78.4776C66.7927 78.4776 69.0036 77.165 70.4544 75.2305C71.9053 77.165 74.1161 78.4776 76.7415 78.4776C79.3668 78.4776 81.5777 77.165 83.0285 75.2305C84.4794 77.165 86.6901 78.4776 89.3155 78.4776C91.9409 78.4776 94.1517 77.165 95.6026 75.2305C97.0534 77.165 99.2643 78.4776 101.89 78.4776C104.515 78.4776 106.726 77.165 108.177 75.2305C109.628 77.165 111.838 78.4776 114.464 78.4776C117.089 78.4776 119.3 77.165 120.751 75.2305C122.202 77.165 124.412 78.4776 127.038 78.4776V75.0232C124.551 75.0232 122.478 73.0196 122.478 70.4634Z" fill="#13648A"/>
<path d="M52.2161 2.27393L55.947 4.34658C58.4342 6.07379 60.5759 8.07735 62.3031 10.5645C65.1357 14.6407 67.4847 22.0332 66.3793 29.3566C65.8957 32.3964 64.7211 35.0909 63.2012 37.6472C65.0665 39.3053 66.3792 40.8252 67.2083 41.9306C69.0046 44.3487 70.5936 47.8722 71.4227 52.0175H87.5203C94.0837 52.0175 99.4035 46.6977 99.4035 40.1343V34.1236H77.7788V20.2369H95.3963C101.96 20.2369 107.28 14.9171 107.28 8.3537V2.34301H52.1471L52.2161 2.27393Z" fill="url(#paint0_linear_248_3954)"/>
<path d="M65.3429 46.7668C65.3429 46.7668 65.1355 46.4214 65.0664 46.2141C64.7901 45.5923 64.4446 45.1087 64.1683 44.6251C63.961 44.3487 63.7538 44.0724 63.6157 43.796C62.9248 42.8979 61.9575 41.7925 60.6448 40.618C60.5757 40.5489 60.4376 40.4798 60.3685 40.3416C59.7467 39.7889 58.9867 39.2362 58.1576 38.6835C57.8122 38.4762 57.5358 38.269 57.1904 38.0617C56.7759 37.7853 56.3614 37.5781 55.9468 37.3017C55.6705 37.1635 55.3941 36.9563 55.1177 36.8181C54.565 36.4727 53.9432 36.1963 53.3215 35.9199C52.6997 35.6436 52.0779 35.3672 51.387 35.16C50.4888 34.8145 49.5216 34.4691 48.4853 34.1236C48.0708 33.9855 47.518 33.8473 47.1034 33.7782C45.7908 33.4328 44.4091 33.0873 42.8892 32.811C42.8892 32.811 42.82 32.811 42.7509 32.811C38.882 32.1201 34.5294 31.7746 29.3478 31.9819C29.3478 31.9819 29.2787 31.9819 29.2096 31.9819H23.0607V20.306H33.2167C35.3585 20.306 36.9475 20.8587 37.9838 21.895C39.0202 23.0004 39.5038 24.3822 39.5038 26.1785C39.5038 27.0075 39.0202 27.5603 38.7438 28.2511C45.9981 28.942 51.6634 30.7383 55.9468 32.8801C57.4668 33.64 58.8485 34.4 60.0921 35.2291C61.2666 33.2255 62.1648 31.1529 62.5102 28.7348C63.4084 22.5859 61.4048 16.2989 59.1248 13.0517C58.2267 11.739 57.1213 10.6336 55.9468 9.5282C50.627 4.69202 42.5437 2.27393 30.8677 2.27393H0.192505V78.4093H29.1405V78.2711C35.773 78.4784 40.8165 78.2711 44.8927 77.7875C45.0308 77.7875 45.2381 77.7875 45.4454 77.7875C46.7581 77.6493 47.9326 77.442 49.038 77.1657C49.038 77.1657 49.107 77.1657 49.1761 77.1657C51.8706 76.5439 54.0124 75.7148 55.9468 74.7476C57.3286 74.0567 58.6412 73.2277 59.8848 72.3295C69.7645 65.0752 68.2445 53.0539 65.4119 46.8359L65.3429 46.7668ZM42.1982 58.7191C41.0237 59.8936 39.2965 60.5154 36.8784 60.5154H22.9917V47.8722H37.0166C39.5038 47.8722 41.231 48.494 42.3364 49.7376C43.4418 50.9812 43.9254 52.4321 43.9254 54.1593C43.9254 56.0247 43.3727 57.5446 42.1982 58.7191Z" fill="url(#paint1_linear_248_3954)"/>
<path d="M123.168 21.7569C129.044 21.7569 133.807 16.9934 133.807 11.1173C133.807 5.24117 129.044 0.477661 123.168 0.477661C117.292 0.477661 112.528 5.24117 112.528 11.1173C112.528 16.9934 117.292 21.7569 123.168 21.7569Z" fill="#FBBB0E"/>
<defs>
<linearGradient id="paint0_linear_248_3954" x1="116.192" y1="-1.38776" x2="-3.33085" y2="75.0239" gradientUnits="userSpaceOnUse">
<stop stop-color="#30B7C0"/>
<stop offset="1" stop-color="#004972"/>
</linearGradient>
<linearGradient id="paint1_linear_248_3954" x1="108.73" y1="-13.0637" x2="-10.7925" y2="63.4171" gradientUnits="userSpaceOnUse">
<stop stop-color="#30B7C0"/>
<stop offset="1" stop-color="#004972"/>
</linearGradient>
</defs>
</svg>
