<svg width="177" height="60" viewBox="0 0 177 60" fill="none" xmlns="http://www.w3.org/2000/svg">
<rect width="176.116" height="60" rx="30" fill="#F2F9FB" fill-opacity="0.75"/>
<path d="M90.4053 22.7255C91.1526 22.6088 91.6898 22.3285 92.0634 21.9082C92.4137 21.4878 92.6005 20.9974 92.6005 20.4136C92.6005 19.5262 92.2969 18.849 91.6898 18.4053C91.0826 17.9616 90.1485 17.7281 88.8874 17.7047H83.5163V27.8164H89.2144C90.4287 27.8164 91.3628 27.5829 91.97 27.1158C92.5772 26.6488 92.8808 25.9949 92.8808 25.1075C92.8808 24.477 92.6706 23.9399 92.2736 23.5195C91.8766 23.0992 91.2694 22.8189 90.4287 22.7255H90.4053ZM86.4821 19.9232H88.2336C89.0042 19.9232 89.3779 20.2268 89.3779 20.834C89.3779 21.4411 89.0042 21.7447 88.2336 21.7447H86.4821V19.9466V19.9232ZM89.3311 25.4578C89.1443 25.6213 88.8407 25.6913 88.4437 25.6913H86.4588V23.8698H88.4437C88.8407 23.8698 89.1443 23.9399 89.3311 24.1033C89.518 24.2668 89.6114 24.477 89.6114 24.7806C89.6114 25.0842 89.518 25.2943 89.3311 25.4578Z" fill="#0A4F76"/>
<path d="M99.9327 20.4602C99.3022 20.1566 98.5783 19.9932 97.7376 19.9932C96.8969 19.9932 96.1963 20.1566 95.5658 20.4602C94.9353 20.7638 94.4449 21.2309 94.0946 21.8147C93.7443 22.3985 93.5575 23.1224 93.5575 23.9865C93.5575 24.8505 93.7443 25.5511 94.0946 26.1349C94.4449 26.7421 94.9353 27.1858 95.5658 27.4894C96.1963 27.793 96.9202 27.9564 97.7376 27.9564C98.5549 27.9564 99.3022 27.793 99.9327 27.4894C100.563 27.1858 101.03 26.7188 101.381 26.1349C101.731 25.5278 101.894 24.8272 101.894 23.9865C101.894 23.1458 101.731 22.4219 101.381 21.8147C101.03 21.2309 100.54 20.7638 99.9327 20.4602ZM98.695 25.0841C98.6016 25.3643 98.4849 25.5511 98.3448 25.6679C98.1813 25.7846 97.9945 25.8547 97.761 25.8547C97.5274 25.8547 97.3406 25.808 97.1771 25.6679C97.0137 25.5278 96.8969 25.3643 96.8268 25.0841C96.7334 24.8038 96.7101 24.4535 96.7101 23.9865C96.7101 23.5194 96.7568 23.1691 96.8268 22.8889C96.8969 22.6087 97.037 22.4219 97.1771 22.3051C97.3406 22.1883 97.5274 22.1416 97.761 22.1416C97.9945 22.1416 98.1813 22.1883 98.3448 22.3051C98.5082 22.4219 98.625 22.6087 98.695 22.8889C98.7651 23.1691 98.8118 23.5428 98.8118 23.9865C98.8118 24.4302 98.7651 24.8038 98.695 25.0841Z" fill="#0A4F76"/>
<path d="M109.111 20.4602C108.48 20.1566 107.756 19.9932 106.916 19.9932C106.075 19.9932 105.374 20.1566 104.744 20.4602C104.113 20.7638 103.623 21.2309 103.273 21.8147C102.922 22.3985 102.735 23.1224 102.735 23.9865C102.735 24.8505 102.922 25.5511 103.273 26.1349C103.623 26.7421 104.113 27.1858 104.744 27.4894C105.374 27.793 106.098 27.9564 106.916 27.9564C107.733 27.9564 108.48 27.793 109.111 27.4894C109.741 27.1858 110.208 26.7188 110.559 26.1349C110.909 25.5278 111.072 24.8272 111.072 23.9865C111.072 23.1458 110.909 22.4219 110.559 21.8147C110.208 21.2309 109.718 20.7638 109.111 20.4602ZM107.85 25.0841C107.756 25.3643 107.64 25.5511 107.499 25.6679C107.336 25.7846 107.149 25.8547 106.916 25.8547C106.682 25.8547 106.495 25.808 106.332 25.6679C106.168 25.5278 106.052 25.3643 105.982 25.0841C105.888 24.8038 105.865 24.4535 105.865 23.9865C105.865 23.5194 105.911 23.1691 105.982 22.8889C106.052 22.6087 106.192 22.4219 106.332 22.3051C106.495 22.1883 106.682 22.1416 106.916 22.1416C107.149 22.1416 107.336 22.1883 107.499 22.3051C107.663 22.4219 107.78 22.6087 107.85 22.8889C107.92 23.1691 107.966 23.5428 107.966 23.9865C107.966 24.4302 107.92 24.8038 107.85 25.0841Z" fill="#0A4F76"/>
<path d="M121.277 20.1567H117.914L115.345 23.0991V17.004H112.24V27.8163H115.345V26.2284L116.443 24.9206L118.031 27.8163H121.441L118.498 23.1692L121.277 20.1567Z" fill="#0A4F76"/>
<path d="M125.177 20.1569H122.071V27.8166H125.177V20.1569Z" fill="#0A4F76"/>
<path d="M133.514 20.2968C133.141 20.1099 132.697 19.9932 132.183 19.9932C131.669 19.9932 131.179 20.1099 130.782 20.3201C130.385 20.5303 130.058 20.8572 129.801 21.2542C129.708 21.4177 129.638 21.6045 129.568 21.7913L129.498 20.1566H126.719V27.8163H129.825V23.7763C129.825 23.426 129.871 23.1458 129.965 22.9356C130.058 22.7254 130.175 22.562 130.338 22.4686C130.502 22.3752 130.665 22.3284 130.875 22.3284C131.132 22.3284 131.319 22.3985 131.459 22.562C131.599 22.7254 131.669 23.0057 131.669 23.4494V27.8397H134.775V22.6554C134.775 22.0716 134.682 21.6045 134.472 21.2075C134.262 20.8105 133.981 20.5069 133.608 20.3201L133.514 20.2968Z" fill="#0A4F76"/>
<path d="M141.197 25.8783H138.698C138.441 25.8783 138.254 25.8316 138.138 25.7615C138.021 25.6915 137.951 25.5747 137.951 25.4346C137.951 25.2945 138.021 25.2011 138.161 25.1077C138.208 25.0843 138.278 25.061 138.348 25.061C138.792 25.1544 139.305 25.2011 139.889 25.2011C140.73 25.2011 141.454 25.1077 142.038 24.9208C142.621 24.734 143.065 24.4304 143.345 24.0568C143.649 23.6598 143.789 23.1927 143.789 22.6323C143.789 22.0718 143.649 21.5581 143.345 21.1844C143.135 20.9042 142.832 20.694 142.481 20.5305C142.528 20.3904 142.598 20.2737 142.715 20.1569C142.925 19.9467 143.252 19.83 143.672 19.83C143.742 19.83 143.812 19.83 143.882 19.83C143.953 19.83 144.046 19.83 144.116 19.8767L143.906 17.8917C143.906 17.8917 143.812 17.8917 143.742 17.8917H143.602C143.065 17.8917 142.645 18.0318 142.318 18.312C141.991 18.5923 141.757 18.9426 141.617 19.3629C141.524 19.6431 141.501 19.9467 141.477 20.227C141.01 20.1102 140.473 20.0401 139.866 20.0401C139.025 20.0401 138.325 20.1335 137.741 20.3437C137.157 20.5539 136.713 20.8341 136.433 21.2078C136.129 21.5814 135.989 22.0718 135.989 22.6556C135.989 23.4963 136.316 24.1502 136.97 24.5939C137.04 24.6406 137.18 24.664 137.274 24.7107C137.017 24.7807 136.783 24.8975 136.573 25.061C136.153 25.3645 135.943 25.7849 135.943 26.2987C135.943 26.8124 136.106 27.2328 136.433 27.5363C136.62 27.7232 136.9 27.8399 137.204 27.9567C136.783 28.0267 136.433 28.1202 136.199 28.2603C135.826 28.5172 135.639 28.8441 135.639 29.2878C135.639 29.895 135.943 30.362 136.573 30.689C137.18 31.0159 138.231 31.1794 139.679 31.1794C140.59 31.1794 141.384 31.086 142.038 30.8758C142.691 30.6656 143.205 30.3387 143.556 29.895C143.906 29.4513 144.093 28.8908 144.093 28.2136C144.093 27.4663 143.836 26.8825 143.345 26.5088C142.855 26.1352 142.131 25.925 141.174 25.925L141.197 25.8783ZM139.259 21.9083C139.422 21.7449 139.632 21.6748 139.889 21.6748C140.146 21.6748 140.356 21.7449 140.52 21.9083C140.683 22.0718 140.753 22.3053 140.753 22.6089C140.753 22.9125 140.683 23.146 140.52 23.3095C140.356 23.473 140.146 23.543 139.889 23.543C139.632 23.543 139.422 23.473 139.259 23.3095C139.095 23.146 139.025 22.9125 139.025 22.6089C139.025 22.3053 139.095 22.0485 139.259 21.9083ZM141.571 28.9142C141.43 29.0076 141.197 29.0776 140.893 29.1243C140.59 29.171 140.216 29.1944 139.749 29.1944C139.189 29.1944 138.745 29.1477 138.418 29.0543C138.091 28.9609 137.928 28.8207 137.928 28.6573C137.928 28.5405 137.974 28.4471 138.044 28.377C138.114 28.307 138.231 28.2603 138.371 28.2603H141.244C141.454 28.2603 141.594 28.2836 141.664 28.3537C141.734 28.4004 141.781 28.4938 141.781 28.5872C141.781 28.704 141.711 28.8207 141.547 28.9142H141.571Z" fill="#0A4F76"/>
<path d="M83.4695 43.8366H86.5987V40.1702H90.6154V37.835H86.5987V36.0602H91.5962V33.7249H83.4695V43.8366Z" fill="#20ADBA"/>
<path d="M96.4529 41.8983C96.196 41.8983 96.0092 41.8282 95.9158 41.6881C95.8223 41.548 95.7523 41.3144 95.7523 40.9875V33.0242H92.6464V41.4312C92.6464 42.342 92.8332 42.9958 93.2302 43.3928C93.6272 43.7898 94.2577 43.9766 95.1451 43.9766C95.4721 43.9766 95.799 43.9299 96.126 43.8599C96.4529 43.7665 96.7097 43.6731 96.8966 43.5329L97.0601 41.7815C97.0601 41.7815 96.8499 41.8516 96.7565 41.8749C96.663 41.8749 96.5463 41.8749 96.4295 41.8749L96.4529 41.8983Z" fill="#20ADBA"/>
<path d="M103.739 36.4804C103.155 36.1769 102.431 36.0134 101.591 36.0134C100.75 36.0134 100.049 36.1769 99.4188 36.4804C98.7883 36.784 98.2979 37.2511 97.9709 37.8349C97.6207 38.4187 97.4572 39.1426 97.4572 40.0067C97.4572 40.8707 97.6207 41.5713 97.9709 42.1785C98.3212 42.7857 98.8117 43.2294 99.4422 43.5329C100.073 43.8365 100.843 44 101.707 44C102.268 44 102.805 43.9299 103.319 43.7665C103.832 43.603 104.276 43.3695 104.65 43.0425C105.023 42.7156 105.28 42.342 105.397 41.8516L102.922 41.1276C102.828 41.3611 102.712 41.548 102.525 41.6881C102.338 41.8282 102.081 41.8983 101.754 41.8983C101.45 41.8983 101.217 41.8516 101.03 41.7348C100.843 41.6414 100.68 41.4546 100.586 41.1743C100.54 41.0342 100.493 40.8707 100.47 40.6839H105.491C105.491 40.5672 105.537 40.4037 105.537 40.2402C105.537 40.0768 105.537 39.8899 105.537 39.7265C105.537 38.9792 105.374 38.3487 105.07 37.7882C104.767 37.2277 104.3 36.8074 103.716 36.5038L103.739 36.4804ZM100.937 38.3019C101.124 38.1852 101.334 38.1151 101.614 38.1151C102.011 38.1151 102.268 38.2552 102.431 38.5588C102.525 38.7456 102.595 39.0259 102.618 39.3061H100.47C100.47 39.166 100.516 39.0025 100.54 38.8858C100.633 38.6055 100.75 38.3954 100.937 38.2786V38.3019Z" fill="#20ADBA"/>
<path d="M112.637 36.4804C112.053 36.1769 111.329 36.0134 110.488 36.0134C109.647 36.0134 108.947 36.1769 108.316 36.4804C107.686 36.784 107.195 37.2511 106.868 37.8349C106.518 38.4187 106.355 39.1426 106.355 40.0067C106.355 40.8707 106.518 41.5713 106.868 42.1785C107.219 42.7857 107.709 43.2294 108.34 43.5329C108.97 43.8365 109.741 44 110.605 44C111.165 44 111.703 43.9299 112.216 43.7665C112.73 43.603 113.174 43.3695 113.547 43.0425C113.921 42.7156 114.178 42.342 114.295 41.8516L111.819 41.1276C111.726 41.3611 111.609 41.548 111.422 41.6881C111.235 41.8282 110.979 41.8983 110.652 41.8983C110.348 41.8983 110.115 41.8516 109.928 41.7348C109.741 41.6414 109.577 41.4546 109.484 41.1743C109.437 41.0342 109.391 40.8707 109.367 40.6839H114.388C114.388 40.5672 114.435 40.4037 114.435 40.2402C114.435 40.0768 114.435 39.8899 114.435 39.7265C114.435 38.9792 114.271 38.3487 113.968 37.7882C113.664 37.2277 113.197 36.8074 112.613 36.5038L112.637 36.4804ZM109.811 38.3019C109.998 38.1852 110.208 38.1151 110.488 38.1151C110.885 38.1151 111.142 38.2552 111.306 38.5588C111.399 38.7456 111.469 39.0259 111.492 39.3061H109.344C109.344 39.166 109.391 39.0025 109.414 38.8858C109.507 38.6055 109.624 38.3954 109.811 38.2786V38.3019Z" fill="#20ADBA"/>
<path d="M121.253 41.618C121.113 41.7114 120.95 41.7815 120.786 41.8048C120.623 41.8515 120.436 41.8749 120.203 41.8749C119.876 41.8749 119.642 41.8048 119.479 41.6413C119.315 41.4779 119.245 41.2443 119.245 40.8707V38.2785H121.323V36.1535H119.245V33.6314L116.139 34.4954V36.1768H114.878V38.3019H116.139V41.3845C116.139 42.015 116.256 42.5287 116.489 42.9024C116.723 43.276 117.073 43.5563 117.54 43.7197C117.984 43.8832 118.544 43.9766 119.198 43.9766C119.595 43.9766 120.016 43.9299 120.413 43.8365C120.833 43.7431 121.16 43.603 121.417 43.4395L121.207 41.6413L121.253 41.618Z" fill="#20ADBA"/>
<path d="M58.015 38.045C58.5054 38.6989 59.2527 39.1426 60.1401 39.1426C61.0275 39.1426 61.7748 38.6989 62.2652 38.045C62.7556 38.6989 63.5028 39.1426 64.3902 39.1426C64.6938 39.1426 64.9974 39.0725 65.2543 38.9557C65.3477 38.909 65.4645 38.8857 65.5579 38.839C65.698 38.7689 65.8381 38.6755 65.9549 38.5821C66.165 38.4186 66.3519 38.2552 66.5153 38.045C67.0058 38.6989 67.753 39.1426 68.6404 39.1426C69.5279 39.1426 70.2751 38.6989 70.7656 38.045C71.256 38.6989 72.0032 39.1426 72.8906 39.1426C74.3852 39.1426 75.5995 37.9282 75.5995 36.4337H74.4319C74.4319 37.2744 73.7547 37.9749 72.8906 37.9749C72.0266 37.9749 71.3494 37.2977 71.3494 36.4337H70.1817C70.1817 37.2744 69.4811 37.9749 68.6404 37.9749C67.7998 37.9749 67.0992 37.2977 67.0992 36.457H65.9315C65.9315 37.2977 65.2543 37.9983 64.3902 37.9983C63.5495 37.9983 62.849 37.3211 62.849 36.457H61.6814C61.6814 37.2977 60.9808 37.9983 60.1401 37.9983C59.2994 37.9983 58.5988 37.3211 58.5988 36.457H57.4311C57.4311 37.2977 56.7539 37.9983 55.8899 37.9983V39.1659C56.7773 39.1659 57.5246 38.7222 58.015 38.0683V38.045Z" fill="#13648A"/>
<path d="M73.3339 40.8703H72.1662C72.1662 41.711 71.4656 42.4116 70.6249 42.4116C69.7843 42.4116 69.0837 41.7344 69.0837 40.8703H67.9161C67.9161 41.711 67.2388 42.4116 66.3748 42.4116C65.5341 42.4116 64.8335 41.7344 64.8335 40.8703H63.6659C63.6659 41.711 62.9886 42.4116 62.1246 42.4116C61.2839 42.4116 60.5833 41.7344 60.5833 40.8703H59.4157C59.4157 41.711 58.7384 42.4116 57.8744 42.4116C57.0103 42.4116 56.3331 41.7344 56.3331 40.8703H55.1655C55.1655 41.711 54.4882 42.4116 53.6242 42.4116V43.5793C54.5116 43.5793 55.2589 43.1356 55.7493 42.4817C56.2397 43.1356 56.987 43.5793 57.8744 43.5793C58.7618 43.5793 59.5091 43.1356 59.9995 42.4817C60.4899 43.1356 61.2372 43.5793 62.1246 43.5793C63.012 43.5793 63.7593 43.1356 64.2497 42.4817C64.7401 43.1356 65.4874 43.5793 66.3748 43.5793C67.2622 43.5793 68.0095 43.1356 68.4999 42.4817C68.9903 43.1356 69.7375 43.5793 70.6249 43.5793C71.5123 43.5793 72.2596 43.1356 72.75 42.4817C73.2405 43.1356 73.9878 43.5793 74.8752 43.5793V42.4116C74.0345 42.4116 73.3339 41.7344 73.3339 40.8703Z" fill="#13648A"/>
<path d="M49.5847 17.8216L50.8457 18.5222C51.6864 19.106 52.4104 19.7832 52.9942 20.6239C53.9516 22.0017 54.7456 24.5005 54.372 26.9759C54.2085 28.0034 53.8115 28.9141 53.2977 29.7782C53.9283 30.3387 54.372 30.8524 54.6522 31.2261C55.2594 32.0434 55.7965 33.2344 56.0767 34.6356H61.5179C63.7364 34.6356 65.5346 32.8374 65.5346 30.6189V28.5872H58.2252V23.8933H64.1801C66.3986 23.8933 68.1968 22.0952 68.1968 19.8767V17.845H49.5613L49.5847 17.8216Z" fill="url(#paint0_linear_248_4046)"/>
<path d="M54.0216 32.8607C54.0216 32.8607 53.9515 32.744 53.9282 32.6739C53.8348 32.4638 53.718 32.3003 53.6246 32.1368C53.5545 32.0434 53.4845 31.95 53.4378 31.8566C53.2043 31.553 52.8773 31.1794 52.4336 30.7824C52.4103 30.759 52.3636 30.7357 52.3402 30.6889C52.13 30.5021 51.8731 30.3153 51.5929 30.1285C51.4761 30.0584 51.3827 29.9884 51.266 29.9183C51.1259 29.8249 50.9858 29.7548 50.8456 29.6614C50.7522 29.6147 50.6588 29.5447 50.5654 29.498C50.3786 29.3812 50.1684 29.2878 49.9582 29.1944C49.7481 29.101 49.5379 29.0076 49.3044 28.9375C49.0008 28.8207 48.6738 28.704 48.3235 28.5872C48.1834 28.5405 47.9966 28.4938 47.8565 28.4704C47.4128 28.3537 46.9457 28.2369 46.432 28.1435C46.432 28.1435 46.4086 28.1435 46.3853 28.1435C45.0775 27.91 43.6063 27.7932 41.8548 27.8633C41.8548 27.8633 41.8315 27.8633 41.8081 27.8633H39.7297V23.9167H43.1626C43.8865 23.9167 44.4236 24.1035 44.7739 24.4538C45.1242 24.8274 45.2877 25.2945 45.2877 25.9016C45.2877 26.1819 45.1242 26.3687 45.0308 26.6022C47.4828 26.8358 49.3978 27.4429 50.8456 28.1669C51.3594 28.4237 51.8264 28.6806 52.2468 28.9608C52.6438 28.2836 52.9474 27.583 53.0641 26.7657C53.3677 24.6873 52.6905 22.5622 51.9198 21.4646C51.6163 21.0209 51.2426 20.6473 50.8456 20.2736C49.0475 18.639 46.3152 17.8216 42.3686 17.8216H32V43.5563H41.7848V43.5096C44.0266 43.5796 45.7314 43.5096 47.1092 43.3461C47.1559 43.3461 47.226 43.3461 47.296 43.3461C47.7397 43.2994 48.1367 43.2293 48.5104 43.1359C48.5104 43.1359 48.5337 43.1359 48.5571 43.1359C49.4678 42.9258 50.1918 42.6455 50.8456 42.3186C51.3127 42.0851 51.7564 41.8048 52.1767 41.5012C55.5162 39.0492 55.0024 34.9858 54.0449 32.8841L54.0216 32.8607ZM46.1984 36.9008C45.8014 37.2978 45.2176 37.5079 44.4003 37.5079H39.7064V33.2344H44.447C45.2877 33.2344 45.8715 33.4446 46.2452 33.8649C46.6188 34.2853 46.7823 34.7757 46.7823 35.3595C46.7823 35.99 46.5954 36.5038 46.1984 36.9008Z" fill="url(#paint1_linear_248_4046)"/>
<path d="M73.5673 24.407C75.5535 24.407 77.1636 22.7969 77.1636 20.8107C77.1636 18.8245 75.5535 17.2144 73.5673 17.2144C71.5811 17.2144 69.9709 18.8245 69.9709 20.8107C69.9709 22.7969 71.5811 24.407 73.5673 24.407Z" fill="#FBBB0E"/>
<path d="M123.613 19.3161C124.528 19.3161 125.271 18.5738 125.271 17.658C125.271 16.7423 124.528 16 123.613 16C122.697 16 121.955 16.7423 121.955 17.658C121.955 18.5738 122.697 19.3161 123.613 19.3161Z" fill="#FBBB0E"/>
<defs>
<linearGradient id="paint0_linear_248_4046" x1="71.2093" y1="16.5839" x2="30.8091" y2="42.412" gradientUnits="userSpaceOnUse">
<stop stop-color="#30B7C0"/>
<stop offset="1" stop-color="#004972"/>
</linearGradient>
<linearGradient id="paint1_linear_248_4046" x1="68.6871" y1="12.6373" x2="28.2869" y2="38.4887" gradientUnits="userSpaceOnUse">
<stop stop-color="#30B7C0"/>
<stop offset="1" stop-color="#004972"/>
</linearGradient>
</defs>
</svg>
