<svg width="35" height="36" viewBox="0 0 35 36" fill="none" xmlns="http://www.w3.org/2000/svg">
<path d="M28.8617 25.5917C28.4536 25.1837 27.9139 24.9141 27.3428 24.8321L24.7392 24.4602L23.7628 23.4838L25.067 22.1796C28.0725 19.1741 30.5686 15.6593 32.2857 12.0153C34.009 8.35772 34.9475 4.56925 35 1.05926C35.0022 0.910334 34.944 0.766691 34.8387 0.661383C34.7334 0.556074 34.5915 0.497031 34.4408 0.500115C30.9308 0.552549 27.1423 1.49107 23.4847 3.21434C19.8408 4.93145 16.326 7.42757 13.3205 10.433L12.0162 11.7373L11.0398 10.7609L10.6679 8.15724C10.5864 7.58575 10.3168 7.04643 9.90832 6.63841L5.79556 2.52565C5.4598 2.1899 5.01345 2.00484 4.53846 2.00484C4.06347 2.00484 3.61712 2.1899 3.28137 2.52565L2.0256 3.78142C1.3325 4.47452 1.3325 5.60251 2.0256 6.29561L6.13836 10.4084C6.54637 10.8164 7.08569 11.086 7.65718 11.168L10.2608 11.5399L11.2372 12.5163L9.93299 13.8205C6.92751 16.826 4.43139 20.3409 2.71429 23.9848C0.991018 27.6424 0.0524943 31.4309 6.03844e-05 34.9409C-0.00214272 35.0898 0.0560195 35.2334 0.161328 35.3387C0.264874 35.4423 0.404992 35.5 0.550837 35.5C0.553481 35.5 0.556125 35.5 0.559209 35.5C4.0692 35.4476 7.85766 34.509 11.5153 32.7858C15.1592 31.0687 18.674 28.5725 21.6795 25.5671L22.9838 24.2628L23.9602 25.2392L24.3321 27.8429C24.4136 28.4144 24.6832 28.9537 25.0917 29.3617L29.2045 33.4745C29.5402 33.8102 29.9866 33.9953 30.4615 33.9953C30.9365 33.9953 31.3829 33.8102 31.7186 33.4745L32.9744 32.2187C33.6675 31.5256 33.6675 30.3976 32.9744 29.7045L28.8617 25.5917ZM7.81448 10.0783C7.47741 10.0303 7.15928 9.87125 6.9187 9.63023L2.80594 5.51747C2.67816 5.38969 2.60766 5.22005 2.60766 5.0394C2.60766 4.85874 2.67816 4.6891 2.80594 4.56132L4.06171 3.30555C4.18949 3.17777 4.35913 3.10771 4.53978 3.10771C4.72044 3.10771 4.89008 3.17821 5.01786 3.30555L9.13062 7.41831C9.3712 7.65889 9.53026 7.97702 9.57873 8.3141L9.87263 10.3722L7.81448 10.0783ZM14.1004 11.2125C19.6126 5.70033 26.5964 2.20532 33.0506 1.67173L27.5799 7.14248L28.3589 7.9215L33.8297 2.45075C33.2961 8.90453 29.8015 15.8884 24.2889 21.401L22.9846 22.7052L22.2682 21.9888L22.6758 21.5812C23.2116 21.0454 23.6998 20.455 24.1259 19.8275C24.4114 19.4081 24.6727 18.9666 24.9022 18.5158C25.2679 17.8011 25.5667 17.0424 25.7901 16.2603L25.8068 16.2003C26.3276 14.3422 25.8227 12.415 24.4554 11.0442C23.0957 9.6809 21.1812 9.17331 19.3336 9.68619C18.5194 9.91223 17.7298 10.2193 16.9869 10.5992C16.5326 10.8309 16.0911 11.0922 15.6747 11.3755C15.0468 11.8021 14.4564 12.2903 13.9206 12.8261L13.513 13.2336L12.7966 12.5172L14.1004 11.2125ZM10.2555 20.0985L10.2709 20.0439C10.4256 19.5037 10.6186 18.9771 10.8473 18.4713L17.0296 24.6537C16.4969 24.8942 15.9417 25.096 15.3733 25.2538C13.9144 25.6592 12.4018 25.2573 11.3262 24.1791C10.2436 23.0939 9.84354 21.5684 10.2555 20.0985ZM18.0581 24.124L11.3782 17.4442C11.5078 17.2217 11.6439 17.004 11.7871 16.7934C12.1744 16.2228 12.6181 15.6866 13.105 15.1992L13.5126 14.7917L20.7097 21.9888L20.3021 22.3964C19.8153 22.8832 19.2786 23.327 18.7075 23.7147C18.4965 23.8583 18.2792 23.9949 18.0581 24.124ZM14.2916 14.0127L14.6992 13.6051C15.1861 13.1182 15.7223 12.6745 16.2938 12.2867C16.504 12.1435 16.7216 12.0078 16.9442 11.8783L23.624 18.5581C23.4949 18.7797 23.3583 18.997 23.2146 19.208C22.8269 19.7786 22.3836 20.3153 21.8963 20.8022L21.4887 21.2098L14.2916 14.0127ZM24.7458 15.9029L24.7304 15.9576C24.5766 16.4964 24.3832 17.023 24.1541 17.5297L17.9717 11.3478C18.5048 11.1068 19.0596 10.9054 19.628 10.7476C20.0021 10.6437 20.3797 10.593 20.7525 10.593C21.8337 10.593 22.8754 11.0208 23.6751 11.8223C24.7577 12.9076 25.1578 14.433 24.7458 15.9029ZM20.9009 24.7889C15.3883 30.3015 8.40491 33.7961 1.95069 34.3297L7.42145 28.859L6.64243 28.0799L1.17211 33.5507C1.70571 27.0969 5.20028 20.1131 10.7129 14.6004L12.0171 13.2962L12.7336 14.0127L12.326 14.4202C11.7898 14.9565 11.302 15.5465 10.8759 16.1739C10.5922 16.5903 10.3309 17.0322 10.0995 17.4856C9.73471 18.1986 9.43597 18.9573 9.21169 19.7412L9.19495 19.8011C8.67414 21.6592 9.17909 23.5865 10.5463 24.9573C11.5571 25.9707 12.8746 26.5113 14.2431 26.5113C14.7155 26.5113 15.194 26.447 15.6681 26.3152C16.4824 26.0892 17.272 25.7821 18.0144 25.4027C18.4661 25.1727 18.908 24.9114 19.327 24.6263C19.9549 24.1998 20.5449 23.7121 21.0812 23.1758L21.4887 22.7682L22.2052 23.4847L20.9009 24.7889ZM32.1958 31.4401L30.9401 32.6959C30.8123 32.8237 30.6426 32.8937 30.462 32.8937C30.2813 32.8937 30.1117 32.8232 29.9839 32.6959L25.8712 28.5831C25.6306 28.3425 25.4715 28.0244 25.423 27.6873L25.1291 25.6292L27.1873 25.9231C27.5244 25.9711 27.8425 26.1302 28.0831 26.3712L32.1958 30.484C32.3236 30.6117 32.3941 30.7814 32.3941 30.962C32.3937 31.1427 32.3236 31.3123 32.1958 31.4401Z" fill="#004972"/>
<path d="M26.5825 8.13959L25.5854 9.1366L26.3644 9.91551L27.3614 8.9185L26.5825 8.13959Z" fill="#004972"/>
<path d="M8.63641 26.0859L7.6394 27.0829L8.41831 27.8619L9.41532 26.8649L8.63641 26.0859Z" fill="#004972"/>
</svg>
